<svg xmlns="http://www.w3.org/2000/svg" viewBox="0 0 512 512" width="512" height="512" role="img" aria-label="小川">
<title>小川</title><defs></defs>
<rect width="512" height="512" fill="#f7f4ed"/>
<g fill="#141210" stroke="none">
<path d="M 256 366 C 296 366, 379.3 378.5, 406 398 C 432.7 417.5, 476 496.8, 456 512 C 436 527.2, 309.3 512, 256 512 C 202.7 512, 76 527.2, 56 512 C 36 496.8, 79.3 417.5, 106 398 C 132.7 378.5, 216 366, 256 366 Z" fill="#f7f4ed"/>
<g fill="#141210"><path d="M 190.7 368.8 L 192.4 372.6 L 194.6 377.9 L 197.5 384.3 L 200.7 391.5 L 204.2 398.9 L 208 406.3 L 211.9 413.2 L 215.8 419.2 L 219.8 424.1 L 224.1 427.5 L 229.2 428.8 L 234.1 427.9 L 238.3 425.6 L 242 422.4 L 245.5 418.8 L 248.6 414.9 L 251.4 411.1 L 253.7 407.7 L 255.6 405 L 256.9 403.2 L 255.1 400.8 L 252.8 402.4 L 250.2 404.8 L 247.3 407.8 L 244.1 411 L 240.8 414.2 L 237.4 417.1 L 234.2 419.3 L 231.4 420.6 L 229.4 420.9 L 227.9 420.5 L 225.4 418.5 L 222 414.6 L 218.2 409.2 L 214.1 402.8 L 210 395.8 L 206 388.8 L 202.2 382 L 198.7 375.8 L 195.7 370.8 L 193.3 367.2 Z"/>
      <path d="M 318.7 367.2 L 316.3 370.8 L 313.3 375.8 L 309.8 382 L 306 388.8 L 302 395.8 L 297.9 402.8 L 293.8 409.2 L 290 414.6 L 286.6 418.5 L 284.1 420.5 L 282.6 420.9 L 280.6 420.6 L 277.8 419.3 L 274.6 417.1 L 271.2 414.2 L 267.9 411 L 264.7 407.8 L 261.8 404.8 L 259.2 402.4 L 256.9 400.8 L 255.1 403.2 L 256.4 405 L 258.3 407.7 L 260.6 411.1 L 263.4 414.9 L 266.5 418.8 L 270 422.4 L 273.7 425.6 L 277.9 427.9 L 282.8 428.8 L 287.9 427.5 L 292.2 424.1 L 296.2 419.2 L 300.1 413.2 L 304 406.3 L 307.8 398.9 L 311.3 391.5 L 314.5 384.3 L 317.4 377.9 L 319.6 372.6 L 321.3 368.8 Z"/>
      <path d="M 224.7 424.8 L 226.1 428 L 228 432.7 L 230.4 438.5 L 233.2 444.8 L 236.2 451.4 L 239.5 457.8 L 243 463.6 L 246.6 468.6 L 250.7 472.3 L 256 474 L 261.3 472.3 L 265.4 468.6 L 269 463.6 L 272.5 457.8 L 275.8 451.4 L 278.8 444.8 L 281.6 438.5 L 284 432.7 L 285.9 428 L 287.3 424.8 L 284.7 423.2 L 282.5 426.3 L 279.9 430.7 L 276.8 436.2 L 273.5 442.2 L 270 448.3 L 266.4 454.2 L 262.9 459.4 L 259.6 463.3 L 257 465.6 L 256 466 L 255 465.6 L 252.4 463.3 L 249.1 459.4 L 245.6 454.2 L 242 448.3 L 238.5 442.2 L 235.2 436.2 L 232.1 430.7 L 229.5 426.3 L 227.3 423.2 Z"/>
      <path d="M 255 402 L 254.4 406.2 L 254 412 L 253.6 419 L 253.3 426.8 L 253.3 435 L 253.3 443.2 L 253.6 451 L 254 458 L 254.4 463.8 L 255 468 L 257 468 L 257.6 463.8 L 258 458 L 258.4 451 L 258.7 443.2 L 258.8 435 L 258.7 426.8 L 258.4 419 L 258 412 L 257.6 406.2 L 257 402 Z"/></g>
<g fill="#141210"><path d="M 296.7 302.1 L 296.5 304.6 L 296.3 308 L 296.1 312.1 L 296 316.6 L 296 321.5 L 296 326.5 L 296.2 331.5 L 296.5 336.3 L 296.9 340.7 L 297.6 344.7 L 298.5 348.3 L 299.7 351.8 L 301 355 L 302.5 358.1 L 304.1 360.9 L 305.7 363.4 L 307.2 365.7 L 308.6 367.7 L 309.8 369.3 L 310.8 370.5 L 313.2 369.5 L 312.8 367.8 L 312.1 365.8 L 311.3 363.5 L 310.3 361 L 309.3 358.4 L 308.2 355.5 L 307.1 352.6 L 306.1 349.5 L 305.2 346.4 L 304.4 343.3 L 303.8 339.8 L 303.2 335.6 L 302.7 331 L 302.2 326.2 L 301.7 321.2 L 301.2 316.4 L 300.7 311.9 L 300.3 307.9 L 299.8 304.5 L 299.3 301.9 Z"/><path d="M 212.7 301.9 L 212.2 304.5 L 211.7 307.9 L 211.3 311.9 L 210.8 316.4 L 210.3 321.2 L 209.8 326.2 L 209.3 331 L 208.8 335.6 L 208.2 339.8 L 207.6 343.3 L 206.8 346.4 L 205.9 349.5 L 204.9 352.6 L 203.8 355.5 L 202.7 358.4 L 201.7 361 L 200.7 363.5 L 199.9 365.8 L 199.2 367.8 L 198.8 369.5 L 201.2 370.5 L 202.2 369.3 L 203.4 367.7 L 204.8 365.7 L 206.3 363.4 L 207.9 360.9 L 209.5 358.1 L 211 355 L 212.3 351.8 L 213.5 348.3 L 214.4 344.7 L 215.1 340.7 L 215.5 336.3 L 215.8 331.5 L 216 326.5 L 216 321.5 L 216 316.6 L 215.9 312.1 L 215.7 308 L 215.5 304.6 L 215.3 302.1 Z"/></g>
<path d="M 146.4 176 Q 160.3 165.5 163.5 148.4 Q 161.7 131.6 172 118.2 Q 191.5 118.1 206.8 106.1 Q 218.6 91.4 237 87.5 Q 253.5 98.1 273.1 96.5 Q 292.2 91.1 310.8 98.2 Q 316.2 115.1 331.4 124.1 Q 349 129.7 359 145.3 Q 350.5 159.7 354.4 176 Q 349.4 194.5 334 206 Q 333.9 182.3 326 160 Q 315.4 146.8 300 140 Q 278.5 133 256 134 Q 233.5 133 212 140 Q 196.6 146.8 186 160 Q 178.1 182.3 178 206 Q 165 188.1 146.4 176 Z" fill="#141210"/>
    <path d="M 151.2 174.5 Q 164.2 164.1 168.5 148.1 Q 167.7 132.4 176.8 119.6 Q 195.4 119.3 210.8 109.1 Q 222 96.3 238.6 92.2 Q 253.6 101.7 271.3 101.2 Q 289.1 96.1 306.9 101.3 Q 312.7 116.6 326.5 125.3 Q 343.3 131 354 145.1 Q 346.7 159 349.7 174.4 Q 344.1 191.5 330.1 202.9 Q 328.8 180.2 321.1 158.8 Q 310 146.9 295 140.3 Q 275.5 136.4 255.8 139 Q 236.3 136.4 217 140.3 Q 202 146.9 190.8 158.8 Q 183.1 180.2 181.9 202.8 Q 168.7 186.3 151.2 174.5 Z" fill="#f7f4ed"/>
    <path d="M 168.3 159.6 L 170.6 161.9 L 174 164.3 L 178.3 167 L 183 169.9 L 188.1 173 L 193.2 176.2 L 198.3 179.3 L 203 182.3 L 207.2 185.2 L 210.5 187.6 L 213.3 189.9 L 215.8 192.3 L 218 194.7 L 220.1 197.1 L 221.9 199.4 L 223.6 201.6 L 225.2 203.6 L 226.6 205.3 L 228.1 206.7 L 229.7 207.6 L 229.7 207.6 L 229.4 205.8 L 228.8 204 L 227.9 201.9 L 226.8 199.6 L 225.4 197 L 223.7 194.4 L 221.7 191.6 L 219.4 188.9 L 216.8 186.1 L 213.7 183.5 L 210.1 180.9 L 205.7 178.1 L 200.8 175.2 L 195.5 172.2 L 190.1 169.4 L 184.8 166.7 L 179.8 164.2 L 175.3 162.1 L 171.4 160.4 L 168.3 159.6 Z M 185.6 130 L 187.4 132.2 L 190 134.6 L 193.4 137.3 L 197.1 140.2 L 201.1 143.3 L 205.2 146.5 L 209.3 149.6 L 213 152.6 L 216.3 155.4 L 219 157.8 L 221.2 160.1 L 223.2 162.5 L 225 164.9 L 226.7 167.3 L 228.2 169.6 L 229.6 171.8 L 230.9 173.8 L 232.2 175.6 L 233.4 177.1 L 234.9 178 L 234.9 178 L 234.9 176.3 L 234.4 174.5 L 233.8 172.4 L 233 170.1 L 231.9 167.6 L 230.6 165 L 229 162.2 L 227.2 159.5 L 225.1 156.8 L 222.6 154.1 L 219.7 151.5 L 216.1 148.6 L 212.2 145.7 L 207.9 142.8 L 203.6 139.9 L 199.3 137.2 L 195.2 134.7 L 191.5 132.6 L 188.3 130.9 L 185.6 130 Z M 217 109.5 L 217.5 111.6 L 218.8 113.9 L 220.5 116.5 L 222.5 119.4 L 224.6 122.4 L 226.8 125.5 L 228.9 128.6 L 230.9 131.6 L 232.7 134.4 L 234.2 136.8 L 235.4 139.1 L 236.6 141.5 L 237.7 143.9 L 238.7 146.4 L 239.6 148.7 L 240.5 151 L 241.3 153.1 L 242.2 154.9 L 243.1 156.5 L 244.3 157.5 L 244.3 157.5 L 244.7 156 L 244.6 154.2 L 244.4 152.2 L 244.1 150 L 243.6 147.5 L 243 144.9 L 242.2 142.3 L 241.2 139.5 L 240.1 136.8 L 238.7 134.2 L 237.1 131.5 L 235.1 128.7 L 232.8 125.7 L 230.4 122.8 L 227.9 119.8 L 225.4 117.1 L 223 114.5 L 220.8 112.3 L 218.8 110.6 L 217 109.5 Z M 256 102.2 L 255.2 103.8 L 254.7 105.8 L 254.4 108.2 L 254.1 110.9 L 253.9 113.8 L 253.7 116.8 L 253.6 119.9 L 253.5 122.8 L 253.4 125.6 L 253.4 128.2 L 253.4 130.7 L 253.5 133.2 L 253.6 135.8 L 253.7 138.3 L 253.9 140.8 L 254.1 143.2 L 254.4 145.3 L 254.7 147.3 L 255.2 148.9 L 256 150.2 L 256 150.2 L 256.8 148.9 L 257.3 147.3 L 257.6 145.3 L 257.9 143.2 L 258.1 140.8 L 258.3 138.3 L 258.4 135.8 L 258.5 133.2 L 258.6 130.7 L 258.6 128.2 L 258.6 125.6 L 258.5 122.8 L 258.4 119.9 L 258.3 116.8 L 258.1 113.8 L 257.9 110.9 L 257.6 108.2 L 257.3 105.8 L 256.8 103.8 L 256 102.2 Z M 295 109.5 L 293.2 110.6 L 291.2 112.3 L 289 114.5 L 286.6 117.1 L 284.1 119.8 L 281.6 122.8 L 279.2 125.7 L 276.9 128.7 L 274.9 131.5 L 273.3 134.2 L 271.9 136.8 L 270.8 139.5 L 269.8 142.3 L 269 144.9 L 268.4 147.5 L 267.9 150 L 267.6 152.2 L 267.4 154.2 L 267.3 156 L 267.7 157.5 L 267.7 157.5 L 268.9 156.5 L 269.8 154.9 L 270.7 153.1 L 271.5 151 L 272.4 148.7 L 273.3 146.4 L 274.3 143.9 L 275.4 141.5 L 276.6 139.1 L 277.8 136.8 L 279.3 134.4 L 281.1 131.6 L 283.1 128.6 L 285.2 125.5 L 287.4 122.4 L 289.5 119.4 L 291.5 116.5 L 293.2 113.9 L 294.5 111.6 L 295 109.5 Z M 326.4 130 L 323.7 130.9 L 320.5 132.6 L 316.8 134.7 L 312.7 137.2 L 308.4 139.9 L 304.1 142.8 L 299.8 145.7 L 295.9 148.6 L 292.3 151.5 L 289.4 154.1 L 286.9 156.8 L 284.8 159.5 L 283 162.2 L 281.4 165 L 280.1 167.6 L 279 170.1 L 278.2 172.4 L 277.6 174.5 L 277.1 176.3 L 277.1 178 L 277.1 178 L 278.6 177.1 L 279.8 175.6 L 281.1 173.8 L 282.4 171.8 L 283.8 169.6 L 285.3 167.3 L 287 164.9 L 288.8 162.5 L 290.8 160.1 L 293 157.8 L 295.7 155.4 L 299 152.6 L 302.7 149.6 L 306.8 146.5 L 310.9 143.3 L 314.9 140.2 L 318.6 137.3 L 322 134.6 L 324.6 132.2 L 326.4 130 Z M 343.7 159.6 L 340.6 160.4 L 336.7 162.1 L 332.2 164.2 L 327.2 166.7 L 321.9 169.4 L 316.5 172.2 L 311.2 175.2 L 306.3 178.1 L 301.9 180.9 L 298.3 183.5 L 295.2 186.1 L 292.6 188.9 L 290.3 191.6 L 288.3 194.4 L 286.6 197 L 285.2 199.6 L 284.1 201.9 L 283.2 204 L 282.6 205.8 L 282.3 207.6 L 282.3 207.6 L 283.9 206.7 L 285.4 205.3 L 286.8 203.6 L 288.4 201.6 L 290.1 199.4 L 291.9 197.1 L 294 194.7 L 296.2 192.3 L 298.7 189.9 L 301.5 187.6 L 304.8 185.2 L 309 182.3 L 313.7 179.3 L 318.8 176.2 L 323.9 173 L 329 169.9 L 333.7 167 L 338 164.3 L 341.4 161.9 L 343.7 159.6 Z M 177.3 163.6 L 179.8 165.6 L 183.3 167.8 L 187.6 170.4 L 192.4 173.2 L 197.5 176.3 L 202.7 179.4 L 207.8 182.4 L 212.6 185.4 L 216.8 188.3 L 220.2 190.8 L 223 193.1 L 225.5 195.6 L 227.8 198.1 L 229.8 200.5 L 231.6 202.9 L 233.3 205.1 L 234.7 207.2 L 236.1 209 L 237.4 210.5 L 238.7 211.6 L 238.7 211.6 L 238.1 210 L 237.3 208.3 L 236.3 206.2 L 235.1 204 L 233.6 201.5 L 231.9 198.9 L 230 196.3 L 227.7 193.6 L 225 190.9 L 222.1 188.4 L 218.5 185.8 L 214.1 183 L 209.2 180.1 L 204 177.1 L 198.7 174.1 L 193.4 171.4 L 188.5 168.8 L 184 166.5 L 180.2 164.7 L 177.3 163.6 Z M 194.6 134 L 196.6 135.9 L 199.3 138.2 L 202.7 140.8 L 206.6 143.6 L 210.6 146.6 L 214.8 149.7 L 218.9 152.8 L 222.7 155.8 L 226 158.6 L 228.8 161.1 L 231 163.4 L 233 165.9 L 234.9 168.3 L 236.5 170.8 L 238 173.2 L 239.3 175.5 L 240.5 177.5 L 241.7 179.4 L 242.7 180.9 L 243.9 182 L 243.9 182 L 243.6 180.5 L 243 178.7 L 242.2 176.7 L 241.2 174.5 L 240.1 172 L 238.8 169.5 L 237.2 166.8 L 235.4 164.1 L 233.3 161.5 L 230.9 158.9 L 228 156.3 L 224.5 153.5 L 220.5 150.5 L 216.3 147.6 L 212 144.6 L 207.8 141.8 L 203.8 139.2 L 200.2 137 L 197.1 135.2 L 194.6 134 Z M 226 113.5 L 226.8 115.4 L 228.2 117.6 L 230 120.1 L 232.1 122.9 L 234.3 125.9 L 236.5 128.9 L 238.7 132 L 240.8 135 L 242.7 137.8 L 244.2 140.3 L 245.4 142.6 L 246.6 145.1 L 247.6 147.6 L 248.6 150.1 L 249.4 152.5 L 250.2 154.8 L 251 156.9 L 251.7 158.8 L 252.4 160.4 L 253.3 161.5 L 253.3 161.5 L 253.3 160.1 L 253.1 158.4 L 252.8 156.4 L 252.3 154.2 L 251.8 151.8 L 251.1 149.2 L 250.2 146.6 L 249.3 144 L 248.1 141.3 L 246.8 138.8 L 245.2 136.1 L 243.2 133.3 L 241 130.4 L 238.6 127.3 L 236.2 124.4 L 233.8 121.6 L 231.5 118.9 L 229.4 116.7 L 227.5 114.8 L 226 113.5 Z M 265 106.2 L 264.5 107.8 L 264.3 109.8 L 264.1 112.2 L 263.9 114.9 L 263.8 117.8 L 263.7 120.8 L 263.6 123.9 L 263.5 126.8 L 263.5 129.6 L 263.5 132.2 L 263.5 134.7 L 263.5 137.2 L 263.6 139.8 L 263.7 142.3 L 263.8 144.8 L 263.9 147.2 L 264.1 149.3 L 264.3 151.3 L 264.5 152.9 L 265 154.2 L 265 154.2 L 265.5 152.9 L 265.7 151.3 L 265.9 149.3 L 266.1 147.2 L 266.2 144.8 L 266.3 142.3 L 266.4 139.8 L 266.5 137.2 L 266.5 134.7 L 266.5 132.2 L 266.5 129.6 L 266.5 126.8 L 266.4 123.9 L 266.3 120.8 L 266.2 117.8 L 266.1 114.9 L 265.9 112.2 L 265.7 109.8 L 265.5 107.8 L 265 106.2 Z M 304 113.5 L 302.5 114.8 L 300.6 116.7 L 298.5 118.9 L 296.2 121.6 L 293.8 124.4 L 291.4 127.3 L 289 130.4 L 286.8 133.3 L 284.8 136.1 L 283.2 138.8 L 281.9 141.3 L 280.7 144 L 279.8 146.6 L 278.9 149.2 L 278.2 151.8 L 277.7 154.2 L 277.2 156.4 L 276.9 158.4 L 276.7 160.1 L 276.7 161.5 L 276.7 161.5 L 277.6 160.4 L 278.3 158.8 L 279 156.9 L 279.8 154.8 L 280.6 152.5 L 281.4 150.1 L 282.4 147.6 L 283.4 145.1 L 284.6 142.6 L 285.8 140.3 L 287.3 137.8 L 289.2 135 L 291.3 132 L 293.5 128.9 L 295.7 125.9 L 297.9 122.9 L 300 120.1 L 301.8 117.6 L 303.2 115.4 L 304 113.5 Z M 335.4 134 L 332.9 135.2 L 329.8 137 L 326.2 139.2 L 322.2 141.8 L 318 144.6 L 313.7 147.6 L 309.5 150.5 L 305.5 153.5 L 302 156.3 L 299.1 158.9 L 296.7 161.5 L 294.6 164.1 L 292.8 166.8 L 291.2 169.5 L 289.9 172 L 288.8 174.5 L 287.8 176.7 L 287 178.7 L 286.4 180.5 L 286.1 182 L 286.1 182 L 287.3 180.9 L 288.3 179.4 L 289.5 177.5 L 290.7 175.5 L 292 173.2 L 293.5 170.8 L 295.1 168.3 L 297 165.9 L 299 163.4 L 301.2 161.1 L 304 158.6 L 307.3 155.8 L 311.1 152.8 L 315.2 149.7 L 319.4 146.6 L 323.4 143.6 L 327.3 140.8 L 330.7 138.2 L 333.4 135.9 L 335.4 134 Z M 352.7 163.6 L 349.8 164.7 L 346 166.5 L 341.5 168.8 L 336.6 171.4 L 331.3 174.1 L 326 177.1 L 320.8 180.1 L 315.9 183 L 311.5 185.8 L 307.9 188.4 L 305 190.9 L 302.3 193.6 L 300 196.3 L 298.1 198.9 L 296.4 201.5 L 294.9 204 L 293.7 206.2 L 292.7 208.3 L 291.9 210 L 291.3 211.6 L 291.3 211.6 L 292.6 210.5 L 293.9 209 L 295.3 207.2 L 296.7 205.1 L 298.4 202.9 L 300.2 200.5 L 302.2 198.1 L 304.5 195.6 L 307 193.1 L 309.8 190.8 L 313.2 188.3 L 317.4 185.4 L 322.2 182.4 L 327.3 179.4 L 332.5 176.3 L 337.6 173.2 L 342.4 170.4 L 346.7 167.8 L 350.2 165.6 L 352.7 163.6 Z" fill="#141210"/>
<path d="M 256 94 C 286.8 94, 325.3 114.7, 340 140 C 354.7 165.3, 338.6 204.1, 336 232 C 333.4 259.9, 340.7 275.1, 326 292 C 311.3 308.9, 281.7 324, 256 324 C 230.3 324, 200.7 308.9, 186 292 C 171.3 275.1, 178.6 259.9, 176 232 C 173.4 204.1, 157.3 165.3, 172 140 C 186.7 114.7, 225.2 94, 256 94 Z" fill="#f7f4ed"/>
<g fill="#141210">M 338.4 143.9 L 336.5 149.3 L 335.7 156.4 L 335.1 164.8 L 334.5 174.3 L 333.9 184.3 L 333.3 194.7 L 332.7 204.9 L 332 214.7 L 331.3 223.7 L 330.6 231.4 L 329.8 238.6 L 329.4 245.3 L 329 251.5 L 328.6 257.3 L 328.1 262.7 L 327.4 267.8 L 326.3 272.4 L 324.9 276.8 L 322.9 281 L 320.3 285.1 L 316.7 288.9 L 311.9 293 L 306 297 L 299.4 300.8 L 292.6 304.5 L 285.7 307.9 L 279.2 311.1 L 273.4 314 L 268.5 316.7 L 265.2 319.6 L 266.8 322.4 L 270.8 321.6 L 275.9 319.7 L 282 317.4 L 288.7 314.6 L 295.9 311.5 L 303.2 308.1 L 310.3 304.3 L 317 300.2 L 322.9 295.8 L 327.7 290.9 L 331.3 286 L 334.1 280.8 L 336.2 275.4 L 337.6 269.8 L 338.7 264.1 L 339.4 258.3 L 339.9 252.2 L 340.3 246 L 340.8 239.4 L 341.4 232.6 L 342.2 224.5 L 342.7 215.4 L 343.1 205.4 L 343.4 195.1 L 343.6 184.7 L 343.7 174.5 L 343.6 165.1 L 343.5 156.6 L 343.1 149.5 L 341.6 144.1 Z M 170.4 144.1 L 168.9 149.5 L 168.5 156.6 L 168.4 165.1 L 168.3 174.5 L 168.4 184.7 L 168.6 195.1 L 168.9 205.4 L 169.3 215.4 L 169.8 224.5 L 170.6 232.6 L 171.2 239.4 L 171.7 246 L 172.1 252.2 L 172.6 258.3 L 173.3 264.1 L 174.4 269.8 L 175.8 275.4 L 177.9 280.8 L 180.7 286 L 184.3 290.9 L 189.1 295.8 L 195 300.2 L 201.7 304.3 L 208.8 308.1 L 216.1 311.5 L 223.3 314.6 L 230 317.4 L 236.1 319.7 L 241.2 321.6 L 245.2 322.4 L 246.8 319.6 L 243.5 316.7 L 238.6 314 L 232.8 311.1 L 226.3 307.9 L 219.4 304.5 L 212.6 300.8 L 206 297 L 200.1 293 L 195.3 288.9 L 191.7 285.1 L 189.1 281 L 187.1 276.8 L 185.7 272.4 L 184.6 267.8 L 183.9 262.7 L 183.4 257.3 L 183 251.5 L 182.6 245.3 L 182.2 238.6 L 181.4 231.4 L 180.7 223.7 L 180 214.7 L 179.3 204.9 L 178.7 194.7 L 178.1 184.3 L 177.5 174.3 L 176.9 164.8 L 176.3 156.4 L 175.5 149.3 L 173.6 143.9 Z</g>
<path d="M 210 304 C 215.3 302.9, 243.7 328, 256 328 C 268.3 328, 296.7 302.9, 302 304 C 307.3 305.1, 302.1 329.9, 296 336 C 289.9 342.1, 266.7 350, 256 350 C 245.3 350, 222.1 342.1, 216 336 C 209.9 329.9, 204.7 305.1, 210 304 Z" fill="#141210" opacity="0.14"/>
<g fill="#141210">
<path d="M 234.4 209.9 L 234.6 208.3 L 233.9 206.8 L 233 205 L 231.8 203.2 L 230.4 201.2 L 228.9 199.2 L 227.3 197.2 L 225.6 195.4 L 223.7 193.7 L 221.5 192.3 L 219.3 191.5 L 217.2 191 L 215 190.8 L 213 190.9 L 211 191.1 L 209.2 191.5 L 207.5 192 L 205.9 192.6 L 204.5 193.1 L 203.2 193.6 L 201.5 194.4 L 199.9 195.4 L 198.5 196.5 L 197.2 197.6 L 196.1 198.7 L 195.1 199.9 L 194.3 201 L 193.7 202 L 193.3 203 L 193.8 204.7 L 195.7 207.3 L 197.4 208 L 198.6 207.8 L 199.7 207.4 L 200.9 206.8 L 202 206.2 L 203.2 205.6 L 204.3 205 L 205.3 204.5 L 206.3 204.1 L 207 203.8 L 208.3 203.4 L 209.6 202.9 L 210.9 202.5 L 212.1 202.1 L 213.2 201.7 L 214.3 201.5 L 215.3 201.3 L 216.1 201.2 L 216.9 201.3 L 217.6 201.4 L 218.3 201.6 L 219.5 202.4 L 221 203.5 L 222.6 204.9 L 224.2 206.5 L 225.8 208 L 227.4 209.5 L 228.9 210.9 L 230.3 211.9 L 232.1 212.1 Z"/><path d="M 199.9 199.1 L 199.3 199.1 L 198.5 199.1 L 197.6 199 L 196.6 198.9 L 195.5 198.8 L 194.5 198.8 L 193.4 198.7 L 192.5 198.7 L 191.7 198.8 L 191.1 199 L 191.1 199 L 191.5 199.6 L 192.1 200.1 L 192.9 200.6 L 193.8 201.1 L 194.7 201.6 L 195.7 202.1 L 196.6 202.6 L 197.4 203 L 198 203.4 L 198.5 203.8 Z"/><ellipse cx="214" cy="208" rx="12" ry="14.16" fill="#141210"/><circle cx="218.08" cy="200.96" r="4.32" fill="#f7f4ed"/><path d="M 227.3 214.8 L 226.2 214.2 L 224.7 214.1 L 223.1 214.1 L 221.2 214.1 L 219.3 214.2 L 217.3 214.4 L 215.3 214.5 L 213.5 214.6 L 211.8 214.6 L 210.4 214.6 L 209.2 214.5 L 207.9 214.3 L 206.6 214.1 L 205.3 213.8 L 204 213.5 L 202.7 213.3 L 201.5 213.1 L 200.4 212.9 L 199.4 212.9 L 198.5 213.4 L 198.5 213.4 L 198.9 214.3 L 199.6 215 L 200.4 215.7 L 201.5 216.4 L 202.7 217 L 204 217.7 L 205.4 218.2 L 206.9 218.7 L 208.5 219 L 210.2 219.2 L 211.9 219.2 L 213.8 219 L 215.8 218.8 L 217.8 218.4 L 219.8 217.9 L 221.8 217.4 L 223.5 216.8 L 225.1 216.3 L 226.4 215.7 L 227.3 214.8 Z"/>
<path d="M 279.9 212.1 L 281.7 211.9 L 283.1 210.9 L 284.6 209.5 L 286.2 208 L 287.8 206.5 L 289.4 204.9 L 291 203.5 L 292.5 202.4 L 293.7 201.6 L 294.4 201.4 L 295.1 201.3 L 295.9 201.2 L 296.7 201.3 L 297.7 201.5 L 298.8 201.7 L 299.9 202.1 L 301.1 202.5 L 302.4 202.9 L 303.7 203.4 L 305 203.8 L 305.7 204.1 L 306.7 204.5 L 307.7 205 L 308.8 205.6 L 310 206.2 L 311.1 206.8 L 312.3 207.4 L 313.4 207.8 L 314.6 208 L 316.3 207.3 L 318.2 204.7 L 318.7 203 L 318.3 202 L 317.7 201 L 316.9 199.9 L 315.9 198.7 L 314.8 197.6 L 313.5 196.5 L 312.1 195.4 L 310.5 194.4 L 308.8 193.6 L 307.5 193.1 L 306.1 192.6 L 304.5 192 L 302.8 191.5 L 301 191.1 L 299 190.9 L 297 190.8 L 294.8 191 L 292.7 191.5 L 290.5 192.3 L 288.3 193.7 L 286.4 195.4 L 284.7 197.2 L 283.1 199.2 L 281.6 201.2 L 280.2 203.2 L 279 205 L 278.1 206.8 L 277.4 208.3 L 277.6 209.9 Z"/><path d="M 313.5 203.8 L 314 203.4 L 314.6 203 L 315.4 202.6 L 316.3 202.1 L 317.3 201.6 L 318.2 201.1 L 319.1 200.6 L 319.9 200.1 L 320.5 199.6 L 320.9 199 L 320.9 199 L 320.3 198.8 L 319.5 198.7 L 318.6 198.7 L 317.5 198.8 L 316.5 198.8 L 315.4 198.9 L 314.4 199 L 313.5 199.1 L 312.7 199.1 L 312.1 199.1 Z"/><ellipse cx="298" cy="208" rx="12" ry="14.16" fill="#141210"/><circle cx="293.92" cy="200.96" r="4.32" fill="#f7f4ed"/><path d="M 284.7 214.8 L 285.6 215.7 L 286.9 216.3 L 288.5 216.8 L 290.2 217.4 L 292.2 217.9 L 294.2 218.4 L 296.2 218.8 L 298.2 219 L 300.1 219.2 L 301.8 219.2 L 303.5 219 L 305.1 218.7 L 306.6 218.2 L 308 217.7 L 309.3 217 L 310.5 216.4 L 311.6 215.7 L 312.4 215 L 313.1 214.3 L 313.5 213.4 L 313.5 213.4 L 312.6 212.9 L 311.6 212.9 L 310.5 213.1 L 309.3 213.3 L 308 213.5 L 306.7 213.8 L 305.4 214.1 L 304.1 214.3 L 302.8 214.5 L 301.6 214.6 L 300.2 214.6 L 298.5 214.6 L 296.7 214.5 L 294.7 214.4 L 292.7 214.2 L 290.8 214.1 L 288.9 214.1 L 287.3 214.1 L 285.8 214.2 L 284.7 214.8 Z"/>
<path d="M 243.9 171.2 L 242.6 170.8 L 240.9 170.2 L 238.8 169.5 L 236.5 168.6 L 234 167.7 L 231.4 166.8 L 228.8 165.9 L 226.1 165.1 L 223.5 164.3 L 221.1 163.7 L 218.8 163.2 L 216.5 162.6 L 214.2 162.2 L 211.8 161.7 L 209.5 161.3 L 207.2 161 L 204.9 160.8 L 202.7 160.7 L 200.5 160.7 L 198.4 160.8 L 196.4 161.1 L 194.3 161.6 L 192.4 162.3 L 190.6 163.1 L 188.9 163.9 L 187.3 164.8 L 185.9 165.7 L 184.7 166.5 L 183.7 167.2 L 183 167.9 L 183 167.9 L 184 167.9 L 185.3 167.7 L 186.7 167.4 L 188.2 166.9 L 189.9 166.5 L 191.6 166 L 193.4 165.6 L 195.2 165.3 L 196.9 165.2 L 198.6 165.2 L 200.3 165.4 L 202.2 165.6 L 204.2 166 L 206.2 166.4 L 208.4 166.9 L 210.5 167.5 L 212.7 168.1 L 214.9 168.8 L 217.1 169.5 L 219.3 170.1 L 221.5 170.8 L 223.9 171.7 L 226.4 172.6 L 228.9 173.6 L 231.4 174.7 L 233.8 175.7 L 236 176.6 L 238.1 177.4 L 239.8 178.2 L 241.2 178.8 Z"/>
<path d="M 270.8 178.8 L 272.2 178.2 L 273.9 177.4 L 276 176.6 L 278.2 175.7 L 280.6 174.7 L 283.1 173.6 L 285.6 172.6 L 288.1 171.7 L 290.5 170.8 L 292.7 170.1 L 294.9 169.5 L 297.1 168.8 L 299.3 168.1 L 301.5 167.5 L 303.6 166.9 L 305.8 166.4 L 307.8 166 L 309.8 165.6 L 311.7 165.4 L 313.4 165.2 L 315.1 165.2 L 316.8 165.3 L 318.6 165.6 L 320.4 166 L 322.1 166.5 L 323.8 166.9 L 325.3 167.4 L 326.7 167.7 L 328 167.9 L 329 167.9 L 329 167.9 L 328.3 167.2 L 327.3 166.5 L 326.1 165.7 L 324.7 164.8 L 323.1 163.9 L 321.4 163.1 L 319.6 162.3 L 317.7 161.6 L 315.6 161.1 L 313.6 160.8 L 311.5 160.7 L 309.3 160.7 L 307.1 160.8 L 304.8 161 L 302.5 161.3 L 300.2 161.7 L 297.8 162.2 L 295.5 162.6 L 293.2 163.2 L 290.9 163.7 L 288.5 164.3 L 285.9 165.1 L 283.2 165.9 L 280.6 166.8 L 278 167.7 L 275.5 168.6 L 273.2 169.5 L 271.1 170.2 L 269.4 170.8 L 268.1 171.2 Z"/>
<path d="M 250 224 L 249.2 225.3 L 248.2 227 L 247.1 229.2 L 245.9 231.6 L 244.7 234.2 L 243.6 236.8 L 242.6 239.4 L 241.8 241.8 L 241.2 244.1 L 241.1 246.3 L 241.6 248.3 L 242.6 250 L 244 251.3 L 245.5 252.4 L 247.1 253.3 L 248.6 254 L 250.1 254.6 L 251.3 255.1 L 252.1 255.6 L 252.3 255.7 L 255.7 250.3 L 254.4 249.7 L 253.1 249.4 L 251.8 249.1 L 250.4 248.8 L 249.1 248.5 L 247.8 248 L 246.7 247.5 L 245.8 247 L 245.3 246.4 L 244.9 245.7 L 244.8 244.5 L 245 242.6 L 245.4 240.2 L 246.1 237.7 L 246.9 235 L 247.7 232.3 L 248.6 229.8 L 249.3 227.5 L 249.8 225.5 L 250 224 Z"/>
<path d="M 238 285.1 L 238.8 286.2 L 240.1 287 L 241.6 287.8 L 243.4 288.7 L 245.3 289.4 L 247.4 290.2 L 249.5 290.8 L 251.7 291.3 L 253.9 291.6 L 256 291.8 L 258.1 291.6 L 260.3 291.3 L 262.5 290.8 L 264.6 290.2 L 266.7 289.4 L 268.6 288.7 L 270.4 287.8 L 271.9 287 L 273.2 286.2 L 274 285.1 L 274 285.1 L 272.7 284.5 L 271.2 284.5 L 269.5 284.6 L 267.6 284.8 L 265.6 285.1 L 263.5 285.5 L 261.5 285.8 L 259.5 286 L 257.6 286.2 L 256 286.3 L 254.4 286.2 L 252.5 286 L 250.5 285.8 L 248.5 285.5 L 246.4 285.1 L 244.4 284.8 L 242.5 284.6 L 240.8 284.5 L 239.3 284.5 L 238 285.1 Z"/>
<path d="M 192.8 200.5 L 191.9 200.2 L 190.8 199.8 L 189.5 199.3 L 188 198.7 L 186.5 198.1 L 184.9 197.5 L 183.4 196.9 L 182.1 196.5 L 180.9 196.1 L 180 196 L 180 196 L 180.6 196.7 L 181.6 197.4 L 182.8 198.2 L 184.1 199 L 185.5 199.9 L 187 200.8 L 188.3 201.6 L 189.5 202.4 L 190.5 203 L 191.2 203.5 Z M 320.8 203.5 L 321.5 203 L 322.5 202.4 L 323.7 201.6 L 325 200.8 L 326.5 199.9 L 327.9 199 L 329.2 198.2 L 330.4 197.4 L 331.4 196.7 L 332 196 L 332 196 L 331.1 196.1 L 329.9 196.5 L 328.6 196.9 L 327.1 197.5 L 325.5 198.1 L 324 198.7 L 322.5 199.3 L 321.2 199.8 L 320.1 200.2 L 319.2 200.5 Z"/>
</g>
<g fill="#141210"><g transform="rotate(-7 260 472)">
    <path d="M 204 438 C 205.9 436.9, 314.1 436.9, 316 438 C 317.9 439.1, 317.9 504.9, 316 506 C 314.1 507.1, 205.9 507.1, 204 506 C 202.1 504.9, 202.1 439.1, 204 438 Z" fill="#f7f4ed"/>
    <path d="M 204 441 L 207.6 441 L 216.2 440.9 L 228.7 440.8 L 243.7 440.7 L 260 440.6 L 276.3 440.5 L 291.3 440.5 L 303.8 440.6 L 312.4 440.7 L 314.4 440.6 L 313.5 440.5 L 313.9 445.6 L 314.2 453.1 L 314.3 462.1 L 314.4 472 L 314.3 481.9 L 314.2 490.9 L 313.9 498.4 L 313.5 503.5 L 314.4 503.4 L 312.3 503.3 L 303.8 503.5 L 291.3 503.7 L 276.3 503.8 L 260 503.9 L 243.7 503.8 L 228.7 503.7 L 216.2 503.5 L 207.7 503.3 L 205.6 503.4 L 206.5 503.6 L 206.3 498.5 L 206.2 491 L 206.2 481.9 L 206.3 472 L 206.5 462.2 L 206.6 453 L 206.8 445.5 L 206.9 440.2 L 207 438 L 201 438 L 201 440.1 L 200.8 445.3 L 200.6 452.9 L 200.5 462 L 200.3 472 L 200.2 481.9 L 200.2 491 L 200.3 498.7 L 200.6 504.1 L 202.4 508.6 L 207.4 509.3 L 216.1 509.5 L 228.6 509.7 L 243.7 509.8 L 260 509.9 L 276.3 509.8 L 291.4 509.7 L 303.9 509.5 L 312.6 509.3 L 317.6 508.6 L 319.5 504.2 L 319.9 498.8 L 320.2 491.1 L 320.3 481.9 L 320.4 472 L 320.3 462.1 L 320.2 452.9 L 319.9 445.2 L 319.5 439.8 L 317.6 435.4 L 312.6 434.7 L 303.8 434.6 L 291.3 434.5 L 276.3 434.5 L 260 434.6 L 243.7 434.7 L 228.6 434.8 L 216.2 434.9 L 207.5 435 L 204 435 Z"/>
    <path d="M 216 458 L 221.6 459 L 229.4 459.4 L 238.7 459.8 L 249.1 459.9 L 260 460 L 270.9 459.9 L 281.3 459.8 L 290.6 459.4 L 298.4 459 L 304 458 L 304 458 L 298.4 457 L 290.6 456.6 L 281.3 456.2 L 270.9 456.1 L 260 456 L 249.1 456.1 L 238.7 456.2 L 229.4 456.6 L 221.6 457 L 216 458 Z"/><path d="M 216 478 L 221.6 479 L 229.4 479.4 L 238.7 479.8 L 249.1 479.9 L 260 480 L 270.9 479.9 L 281.3 479.8 L 290.6 479.4 L 298.4 479 L 304 478 L 304 478 L 298.4 477 L 290.6 476.6 L 281.3 476.2 L 270.9 476.1 L 260 476 L 249.1 476.1 L 238.7 476.2 L 229.4 476.6 L 221.6 477 L 216 478 Z"/><path d="M 216 498 L 220.7 499 L 227.2 499.4 L 235.1 499.8 L 243.8 499.9 L 253 500 L 262.2 499.9 L 270.9 499.8 L 278.8 499.4 L 285.3 499 L 290 498 L 290 498 L 285.3 497 L 278.8 496.6 L 270.9 496.2 L 262.2 496.1 L 253 496 L 243.8 496.1 L 235.1 496.2 L 227.2 496.6 L 220.7 497 L 216 498 Z"/>
  </g></g>
</g></svg>