<svg xmlns="http://www.w3.org/2000/svg" viewBox="0 0 512 512" width="512" height="512" role="img" aria-label="佐伯 梨乃">
<title>佐伯 梨乃</title><defs><clipPath id="h1"><path d="M 256 366 C 296 366, 379.3 378.5, 406 398 C 432.7 417.5, 476 496.8, 456 512 C 436 527.2, 309.3 512, 256 512 C 202.7 512, 76 527.2, 56 512 C 36 496.8, 79.3 417.5, 106 398 C 132.7 378.5, 216 366, 256 366 Z M 256 480 C 270.8 480, 320.8 364.8, 330 368 C 339.2 371.2, 364.6 497.6, 348 512 C 331.4 526.4, 180.6 526.4, 164 512 C 147.4 497.6, 172.8 371.2, 182 368 C 191.2 364.8, 241.2 480, 256 480 Z"/></clipPath></defs>
<rect width="512" height="512" fill="#f7f4ed"/>
<g fill="#141210" stroke="none">
<path d="M 256 366 C 296 366, 379.3 378.5, 406 398 C 432.7 417.5, 476 496.8, 456 512 C 436 527.2, 309.3 512, 256 512 C 202.7 512, 76 527.2, 56 512 C 36 496.8, 79.3 417.5, 106 398 C 132.7 378.5, 216 366, 256 366 Z" fill="#f7f4ed"/>
<g clip-path="url(#h1)"><path d="M 262 -584 L 444 -394 L 678 -151 L 912 91 L 1096 279 L 1096 279 L 914 89 L 680 -154 L 445 -396 L 262 -584 Z M 252 -574 L 434 -385 L 668 -142 L 902 101 L 1086 289 L 1086 289 L 904 99 L 670 -144 L 435 -386 L 252 -574 Z M 242 -565 L 423 -375 L 658 -132 L 892 111 L 1076 299 L 1076 299 L 894 109 L 660 -134 L 425 -377 L 242 -565 Z M 232 -555 L 413 -365 L 648 -122 L 882 120 L 1066 308 L 1066 308 L 884 119 L 650 -124 L 415 -367 L 232 -555 Z M 222 -545 L 403 -355 L 638 -112 L 872 130 L 1055 318 L 1055 318 L 874 128 L 640 -115 L 405 -357 L 222 -545 Z M 212 -535 L 393 -346 L 627 -103 L 862 140 L 1045 328 L 1045 328 L 864 138 L 630 -105 L 395 -348 L 212 -535 Z M 202 -526 L 383 -336 L 617 -93 L 852 150 L 1035 337 L 1035 337 L 854 148 L 620 -95 L 385 -338 L 202 -526 Z M 192 -516 L 373 -326 L 607 -83 L 842 159 L 1025 347 L 1025 347 L 844 157 L 610 -85 L 375 -328 L 192 -516 Z M 182 -506 L 363 -317 L 597 -74 L 832 169 L 1015 357 L 1015 357 L 834 167 L 600 -76 L 365 -318 L 182 -506 Z M 172 -497 L 353 -307 L 587 -64 L 822 179 L 1005 367 L 1005 367 L 824 177 L 589 -66 L 355 -309 L 172 -497 Z M 161 -487 L 343 -297 L 577 -54 L 812 188 L 995 376 L 995 376 L 814 187 L 579 -56 L 345 -299 L 161 -487 Z M 151 -477 L 333 -287 L 567 -44 L 802 198 L 985 386 L 985 386 L 804 196 L 569 -47 L 335 -289 L 151 -477 Z M 141 -467 L 323 -278 L 557 -35 L 792 208 L 975 396 L 975 396 L 793 206 L 559 -37 L 325 -279 L 141 -467 Z M 131 -458 L 313 -268 L 547 -25 L 782 218 L 965 406 L 965 406 L 783 216 L 549 -27 L 315 -270 L 131 -458 Z M 121 -448 L 303 -258 L 537 -15 L 772 227 L 955 415 L 955 415 L 773 226 L 539 -17 L 304 -260 L 121 -448 Z M 111 -438 L 293 -248 L 527 -5 L 761 237 L 945 425 L 945 425 L 763 235 L 529 -8 L 294 -250 L 111 -438 Z M 101 -428 L 282 -239 L 517 4 L 751 247 L 935 435 L 935 435 L 753 245 L 519 2 L 284 -241 L 101 -428 Z M 91 -419 L 272 -229 L 507 14 L 741 257 L 925 444 L 925 444 L 743 255 L 509 12 L 274 -231 L 91 -419 Z M 81 -409 L 262 -219 L 497 24 L 731 266 L 914 454 L 914 454 L 733 264 L 499 21 L 264 -221 L 81 -409 Z M 71 -399 L 252 -210 L 486 33 L 721 276 L 904 464 L 904 464 L 723 274 L 489 31 L 254 -211 L 71 -399 Z M 61 -390 L 242 -200 L 476 43 L 711 286 L 894 474 L 894 474 L 713 284 L 479 41 L 244 -202 L 61 -390 Z M 51 -380 L 232 -190 L 466 53 L 701 295 L 884 483 L 884 483 L 703 294 L 469 51 L 234 -192 L 51 -380 Z M 41 -370 L 222 -180 L 456 63 L 691 305 L 874 493 L 874 493 L 693 303 L 459 60 L 224 -182 L 41 -370 Z M 31 -360 L 212 -171 L 446 72 L 681 315 L 864 503 L 864 503 L 683 313 L 448 70 L 214 -172 L 31 -360 Z M 20 -351 L 202 -161 L 436 82 L 671 325 L 854 513 L 854 513 L 673 323 L 438 80 L 204 -163 L 20 -351 Z M 10 -341 L 192 -151 L 426 92 L 661 334 L 844 522 L 844 522 L 663 333 L 428 90 L 194 -153 L 10 -341 Z M 0 -331 L 182 -141 L 416 102 L 651 344 L 834 532 L 834 532 L 653 342 L 418 99 L 184 -143 L 0 -331 Z M -10 -321 L 172 -132 L 406 111 L 641 354 L 824 542 L 824 542 L 642 352 L 408 109 L 174 -134 L -10 -321 Z M -20 -312 L 162 -122 L 396 121 L 631 364 L 814 551 L 814 551 L 632 362 L 398 119 L 163 -124 L -20 -312 Z M -30 -302 L 152 -112 L 386 131 L 620 373 L 804 561 L 804 561 L 622 371 L 388 128 L 153 -114 L -30 -302 Z M -40 -292 L 141 -103 L 376 140 L 610 383 L 794 571 L 794 571 L 612 381 L 378 138 L 143 -104 L -40 -292 Z M -50 -283 L 131 -93 L 366 150 L 600 393 L 784 581 L 784 581 L 602 391 L 368 148 L 133 -95 L -50 -283 Z M -60 -273 L 121 -83 L 356 160 L 590 402 L 774 590 L 774 590 L 592 401 L 358 158 L 123 -85 L -60 -273 Z M -70 -263 L 111 -73 L 345 170 L 580 412 L 763 600 L 763 600 L 582 410 L 348 167 L 113 -75 L -70 -263 Z M -80 -253 L 101 -64 L 335 179 L 570 422 L 753 610 L 753 610 L 572 420 L 338 177 L 103 -65 L -80 -253 Z M -90 -244 L 91 -54 L 325 189 L 560 432 L 743 620 L 743 620 L 562 430 L 328 187 L 93 -56 L -90 -244 Z M -100 -234 L 81 -44 L 315 199 L 550 441 L 733 629 L 733 629 L 552 440 L 318 197 L 83 -46 L -100 -234 Z M -110 -224 L 71 -35 L 305 208 L 540 451 L 723 639 L 723 639 L 542 449 L 308 206 L 73 -36 L -110 -224 Z M -121 -215 L 61 -25 L 295 218 L 530 461 L 713 649 L 713 649 L 532 459 L 297 216 L 63 -27 L -121 -215 Z M -131 -205 L 51 -15 L 285 228 L 520 470 L 703 658 L 703 658 L 522 469 L 287 226 L 53 -17 L -131 -205 Z M -141 -195 L 41 -5 L 275 238 L 510 480 L 693 668 L 693 668 L 512 478 L 277 235 L 43 -7 L -141 -195 Z M -151 -185 L 31 4 L 265 247 L 500 490 L 683 678 L 683 678 L 501 488 L 267 245 L 33 3 L -151 -185 Z M -161 -176 L 21 14 L 255 257 L 490 500 L 673 688 L 673 688 L 491 498 L 257 255 L 22 12 L -161 -176 Z M -171 -166 L 11 24 L 245 267 L 479 509 L 663 697 L 663 697 L 481 508 L 247 265 L 12 22 L -171 -166 Z M -181 -156 L 0 34 L 235 277 L 469 519 L 653 707 L 653 707 L 471 517 L 237 274 L 2 32 L -181 -156 Z M -191 -146 L -10 43 L 225 286 L 459 529 L 643 717 L 643 717 L 461 527 L 227 284 L -8 42 L -191 -146 Z M -201 -137 L -20 53 L 215 296 L 449 539 L 633 727 L 633 727 L 451 537 L 217 294 L -18 51 L -201 -137 Z M -211 -127 L -30 63 L 204 306 L 439 548 L 622 736 L 622 736 L 441 547 L 207 304 L -28 61 L -211 -127 Z M -221 -117 L -40 72 L 194 315 L 429 558 L 612 746 L 612 746 L 431 556 L 197 313 L -38 71 L -221 -117 Z M -231 -108 L -50 82 L 184 325 L 419 568 L 602 756 L 602 756 L 421 566 L 187 323 L -48 80 L -231 -108 Z M -241 -98 L -60 92 L 174 335 L 409 577 L 592 765 L 592 765 L 411 576 L 177 333 L -58 90 L -241 -98 Z M -251 -88 L -70 102 L 164 345 L 399 587 L 582 775 L 582 775 L 401 585 L 167 342 L -68 100 L -251 -88 Z M -262 -78 L -80 111 L 154 354 L 389 597 L 572 785 L 572 785 L 391 595 L 156 352 L -78 110 L -262 -78 Z M -272 -69 L -90 121 L 144 364 L 379 607 L 562 795 L 562 795 L 381 605 L 146 362 L -88 119 L -272 -69 Z M -282 -59 L -100 131 L 134 374 L 369 616 L 552 804 L 552 804 L 371 615 L 136 372 L -98 129 L -282 -59 Z M -292 -49 L -110 141 L 124 384 L 359 626 L 542 814 L 542 814 L 360 624 L 126 381 L -108 139 L -292 -49 Z M -302 -39 L -120 150 L 114 393 L 349 636 L 532 824 L 532 824 L 350 634 L 116 391 L -119 148 L -302 -39 Z M -312 -30 L -130 160 L 104 403 L 338 646 L 522 833 L 522 833 L 340 644 L 106 401 L -129 158 L -312 -30 Z M -322 -20 L -141 170 L 94 413 L 328 655 L 512 843 L 512 843 L 330 653 L 96 410 L -139 168 L -322 -20 Z M -332 -10 L -151 179 L 84 422 L 318 665 L 502 853 L 502 853 L 320 663 L 86 420 L -149 178 L -332 -10 Z M -342 -1 L -161 189 L 74 432 L 308 675 L 492 863 L 492 863 L 310 673 L 76 430 L -159 187 L -342 -1 Z M -352 9 L -171 199 L 64 442 L 298 684 L 481 872 L 481 872 L 300 683 L 66 440 L -169 197 L -352 9 Z M -362 19 L -181 209 L 53 452 L 288 694 L 471 882 L 471 882 L 290 692 L 56 449 L -179 207 L -362 19 Z M -372 29 L -191 218 L 43 461 L 278 704 L 461 892 L 461 892 L 280 702 L 46 459 L -189 217 L -372 29 Z M -382 38 L -201 228 L 33 471 L 268 714 L 451 902 L 451 902 L 270 712 L 36 469 L -199 226 L -382 38 Z M -392 48 L -211 238 L 23 481 L 258 723 L 441 911 L 441 911 L 260 722 L 26 479 L -209 236 L -392 48 Z M -402 58 L -221 248 L 13 491 L 248 733 L 431 921 L 431 921 L 250 731 L 15 488 L -219 246 L -402 58 Z M -413 68 L -231 257 L 3 500 L 238 743 L 421 931 L 421 931 L 240 741 L 5 498 L -229 255 L -413 68 Z M -423 77 L -241 267 L -7 510 L 228 753 L 411 940 L 411 940 L 230 751 L -5 508 L -239 265 L -423 77 Z M -433 87 L -251 277 L -17 520 L 218 762 L 401 950 L 401 950 L 219 760 L -15 517 L -249 275 L -433 87 Z M -443 97 L -261 286 L -27 529 L 208 772 L 391 960 L 391 960 L 209 770 L -25 527 L -260 285 L -443 97 Z M -453 106 L -271 296 L -37 539 L 197 782 L 381 970 L 381 970 L 199 780 L -35 537 L -270 294 L -453 106 Z M -463 116 L -281 306 L -47 549 L 187 791 L 371 979 L 371 979 L 189 790 L -45 547 L -280 304 L -463 116 Z M -473 126 L -292 316 L -57 559 L 177 801 L 361 989 L 361 989 L 179 799 L -55 556 L -290 314 L -473 126 Z M -483 136 L -302 325 L -67 568 L 167 811 L 351 999 L 351 999 L 169 809 L -65 566 L -300 324 L -483 136 Z M -493 145 L -312 335 L -77 578 L 157 821 L 340 1009 L 340 1009 L 159 819 L -75 576 L -310 333 L -493 145 Z M -503 155 L -322 345 L -88 588 L 147 830 L 330 1018 L 330 1018 L 149 829 L -85 586 L -320 343 L -503 155 Z M -513 165 L -332 355 L -98 597 L 137 840 L 320 1028 L 320 1028 L 139 838 L -95 595 L -330 353 L -513 165 Z M -523 175 L -342 364 L -108 607 L 127 850 L 310 1038 L 310 1038 L 129 848 L -105 605 L -340 362 L -523 175 Z M -533 184 L -352 374 L -118 617 L 117 860 L 300 1047 L 300 1047 L 119 858 L -115 615 L -350 372 L -533 184 Z M -543 194 L -362 384 L -128 627 L 107 869 L 290 1057 L 290 1057 L 109 867 L -126 624 L -360 382 L -543 194 Z M -554 204 L -372 393 L -138 636 L 97 879 L 280 1067 L 280 1067 L 99 877 L -136 634 L -370 392 L -554 204 Z M -564 213 L -382 403 L -148 646 L 87 889 L 270 1077 L 270 1077 L 89 887 L -146 644 L -380 401 L -564 213 Z M -574 223 L -392 413 L -158 656 L 77 898 L 260 1086 L 260 1086 L 78 897 L -156 654 L -390 411 L -574 223 Z"/></g>
<g fill="#141210"><path d="M 178.6 369 L 180.8 373 L 183.9 378.1 L 187.6 384.2 L 191.8 390.9 L 196.3 398.1 L 201.1 405.5 L 205.8 412.8 L 210.3 419.9 L 214.5 426.5 L 218.2 432.4 L 221.5 437.8 L 224.8 443.4 L 228.1 449 L 231.3 454.4 L 234.4 459.6 L 237.3 464.5 L 240 468.9 L 242.4 472.9 L 244.6 476.2 L 246.5 478.8 L 249.5 477.2 L 248.4 474.2 L 247 470.5 L 245.3 466.2 L 243.2 461.4 L 240.9 456.2 L 238.3 450.6 L 235.5 444.9 L 232.4 439.1 L 229.2 433.3 L 225.8 427.6 L 222 421.7 L 217.6 415.1 L 212.7 408.1 L 207.6 401 L 202.4 393.9 L 197.3 387.1 L 192.5 380.8 L 188.1 375.2 L 184.3 370.5 L 181.4 367 Z"/>
      <path d="M 330.6 367 L 327.7 370.5 L 323.9 375.2 L 319.5 380.8 L 314.7 387.1 L 309.6 393.9 L 304.4 401 L 299.3 408.1 L 294.4 415.1 L 290 421.7 L 286.2 427.6 L 282.8 433.3 L 279.6 439.1 L 276.5 444.9 L 273.7 450.6 L 271.1 456.2 L 268.8 461.4 L 266.7 466.2 L 265 470.5 L 263.6 474.2 L 262.5 477.2 L 265.5 478.8 L 267.4 476.2 L 269.6 472.9 L 272 468.9 L 274.7 464.5 L 277.6 459.6 L 280.7 454.4 L 283.9 449 L 287.2 443.4 L 290.5 437.8 L 293.8 432.4 L 297.5 426.5 L 301.7 419.9 L 306.2 412.8 L 310.9 405.5 L 315.7 398.1 L 320.2 390.9 L 324.4 384.2 L 328.1 378.1 L 331.2 373 L 333.4 369 Z"/>
      <path d="M 248 478 L 247.5 480.2 L 247.1 483.2 L 246.8 486.8 L 246.5 490.8 L 246.2 495 L 246 499.2 L 245.7 503.2 L 245.5 506.8 L 245.2 509.8 L 245 512 L 251 512 L 250.8 509.8 L 250.5 506.8 L 250.3 503.2 L 250 499.2 L 249.8 495 L 249.5 490.8 L 249.2 486.8 L 248.9 483.2 L 248.5 480.2 L 248 478 Z"/>
      <path d="M 264 478 L 263.5 480.2 L 263.1 483.2 L 262.8 486.8 L 262.5 490.8 L 262.2 495 L 262 499.2 L 261.7 503.2 L 261.5 506.8 L 261.2 509.8 L 261 512 L 267 512 L 266.8 509.8 L 266.5 506.8 L 266.3 503.2 L 266 499.2 L 265.8 495 L 265.5 490.8 L 265.2 486.8 L 264.9 483.2 L 264.5 480.2 L 264 478 Z"/></g>
<g fill="#141210"><path d="M 296.7 295.1 L 296.5 297.6 L 296.3 300.9 L 296.1 304.9 L 296 309.3 L 296 314.1 L 296 319 L 296.2 324 L 296.5 328.8 L 296.9 333.4 L 297.6 337.6 L 298.5 341.6 L 299.6 345.6 L 301 349.6 L 302.4 353.5 L 304 357.1 L 305.6 360.5 L 307.1 363.7 L 308.5 366.4 L 309.7 368.7 L 310.7 370.4 L 313.3 369.6 L 312.9 367.5 L 312.2 364.9 L 311.4 362 L 310.4 358.7 L 309.4 355.1 L 308.3 351.4 L 307.2 347.6 L 306.1 343.8 L 305.2 340 L 304.4 336.4 L 303.8 332.5 L 303.2 328.2 L 302.7 323.5 L 302.2 318.6 L 301.7 313.8 L 301.2 309.1 L 300.7 304.7 L 300.3 300.8 L 299.8 297.5 L 299.3 294.9 Z"/><path d="M 212.7 294.9 L 212.2 297.5 L 211.7 300.8 L 211.3 304.7 L 210.8 309.1 L 210.3 313.8 L 209.8 318.6 L 209.3 323.5 L 208.8 328.2 L 208.2 332.5 L 207.6 336.4 L 206.8 340 L 205.9 343.8 L 204.8 347.6 L 203.7 351.4 L 202.6 355.1 L 201.6 358.7 L 200.6 362 L 199.8 364.9 L 199.1 367.5 L 198.7 369.6 L 201.3 370.4 L 202.3 368.7 L 203.5 366.4 L 204.9 363.7 L 206.4 360.5 L 208 357.1 L 209.6 353.5 L 211 349.6 L 212.4 345.6 L 213.5 341.6 L 214.4 337.6 L 215.1 333.4 L 215.5 328.8 L 215.8 324 L 216 319 L 216 314.1 L 216 309.3 L 215.9 304.9 L 215.7 300.9 L 215.5 297.6 L 215.3 295.1 Z"/></g>
<path d="M 256 54 Q 284 73.6 318 70 Q 322.8 106.4 349 132 Q 340 170.8 347 210 Q 346 251.5 355 292 Q 339.2 295.4 330 282 Q 334 246.4 324 212 Q 328 181.3 318 152 Q 290.1 132.5 256 132 Q 221.9 132.5 194 152 Q 184 181.3 188 212 Q 178 246.4 182 282 Q 172.8 295.4 157 292 Q 166 251.5 165 210 Q 172 170.8 163 132 Q 189.2 106.4 194 70 Q 228 73.6 256 54 Z" fill="#141210"/>
<path d="M 256 94 C 284.2 94, 320 114.7, 333 140 C 346 165.3, 331.2 204.1, 327 232 C 322.8 259.9, 323 276.4, 310 292 C 297 307.6, 275.8 317, 256 317 C 236.2 317, 215 307.6, 202 292 C 189 276.4, 189.2 259.9, 185 232 C 180.8 204.1, 166 165.3, 179 140 C 192 114.7, 227.8 94, 256 94 Z" fill="#f7f4ed"/>
<g fill="#141210">M 331.4 143.9 L 329.4 149.2 L 328.5 156.3 L 327.8 164.8 L 327 174.2 L 326.3 184.3 L 325.6 194.6 L 324.7 204.8 L 323.8 214.5 L 322.8 223.4 L 321.6 231.1 L 320.3 238 L 319 244.6 L 317.7 250.8 L 316.2 256.7 L 314.7 262.3 L 313 267.5 L 311.1 272.3 L 309 276.9 L 306.7 281.2 L 304.2 285.2 L 301.3 288.7 L 297.7 292 L 293.4 295.2 L 288.8 298.3 L 284.1 301 L 279.3 303.6 L 274.8 305.9 L 270.8 308.1 L 267.4 310.1 L 265.1 312.6 L 266.9 315.4 L 269.8 315 L 273.4 313.8 L 277.7 312.2 L 282.4 310.2 L 287.6 308 L 292.9 305.4 L 298.1 302.4 L 303.1 299 L 307.8 295.2 L 311.8 290.8 L 315 286.3 L 317.9 281.6 L 320.5 276.5 L 322.8 271.1 L 324.8 265.5 L 326.7 259.6 L 328.3 253.4 L 329.8 246.9 L 331.1 240.1 L 332.4 232.9 L 333.5 224.8 L 334.5 215.5 L 335.2 205.6 L 335.7 195.2 L 336.1 184.7 L 336.3 174.6 L 336.3 165.1 L 336.3 156.6 L 336 149.5 L 334.6 144.1 Z M 177.4 144.1 L 176 149.5 L 175.7 156.6 L 175.7 165.1 L 175.7 174.6 L 175.9 184.7 L 176.3 195.2 L 176.8 205.6 L 177.5 215.5 L 178.5 224.8 L 179.6 232.9 L 180.9 240.1 L 182.2 246.9 L 183.7 253.4 L 185.3 259.6 L 187.2 265.5 L 189.2 271.1 L 191.5 276.5 L 194.1 281.6 L 197 286.3 L 200.2 290.8 L 204.2 295.2 L 208.9 299 L 213.9 302.4 L 219.1 305.4 L 224.4 308 L 229.6 310.2 L 234.3 312.2 L 238.6 313.8 L 242.2 315 L 245.1 315.4 L 246.9 312.6 L 244.6 310.1 L 241.2 308.1 L 237.2 305.9 L 232.7 303.6 L 227.9 301 L 223.2 298.3 L 218.6 295.2 L 214.3 292 L 210.7 288.7 L 207.8 285.2 L 205.3 281.2 L 203 276.9 L 200.9 272.3 L 199 267.5 L 197.3 262.3 L 195.8 256.7 L 194.3 250.8 L 193 244.6 L 191.7 238 L 190.4 231.1 L 189.2 223.4 L 188.2 214.5 L 187.3 204.8 L 186.4 194.6 L 185.7 184.3 L 185 174.2 L 184.2 164.8 L 183.5 156.3 L 182.6 149.2 L 180.6 143.9 Z</g>
<path d="M 210 297 C 215.3 295.9, 243.7 321, 256 321 C 268.3 321, 296.7 295.9, 302 297 C 307.3 298.1, 302.1 322.9, 296 329 C 289.9 335.1, 266.7 343, 256 343 C 245.3 343, 222.1 335.1, 216 329 C 209.9 322.9, 204.7 298.1, 210 297 Z" fill="#141210" opacity="0.14"/>
<path d="M 256 66 Q 283.7 96.3 324 104 Q 323.1 144.4 338 182 Q 330.8 194.8 318 202 Q 320 176.4 312 152 Q 294.5 146.9 284 132 Q 273.9 151.9 254 162 Q 234.2 153.1 224 134 Q 215.3 149.5 198 154 Q 202 177.5 194 200 Q 187.5 186.5 174 180 Q 177.1 141.3 188 104 Q 225.9 92 256 66 Z" fill="#141210"/>
<path d="M 212 106 Q 228.3 104.8 242 96 Q 235.1 105.9 236 118 Q 219.5 120.3 206 130 Q 212.9 119 212 106 Z" fill="#f7f4ed"/>
<g fill="#141210">
<path d="M 235.2 207.7 L 235.5 205.9 L 234.9 204.3 L 234 202.4 L 232.8 200.4 L 231.4 198.2 L 229.9 196 L 228.3 193.9 L 226.5 191.8 L 224.6 190 L 222.4 188.3 L 220.1 187.2 L 217.9 186.5 L 215.6 186.1 L 213.4 186 L 211.4 186 L 209.4 186.3 L 207.5 186.6 L 205.8 187.1 L 204.2 187.5 L 202.8 188.1 L 200.8 189 L 199.1 190.1 L 197.5 191.3 L 196.2 192.5 L 195 193.8 L 194 195.1 L 193.2 196.3 L 192.6 197.5 L 192.4 198.6 L 193.1 200.4 L 195.4 203.6 L 197.3 204.4 L 198.6 204.1 L 199.9 203.7 L 201.1 203.1 L 202.3 202.4 L 203.5 201.8 L 204.6 201.2 L 205.6 200.7 L 206.4 200.4 L 206.9 200.3 L 208.1 199.9 L 209.4 199.6 L 210.6 199.2 L 211.7 199 L 212.8 198.7 L 213.8 198.6 L 214.7 198.5 L 215.6 198.5 L 216.3 198.6 L 217 198.7 L 217.8 199 L 219 199.8 L 220.6 201.1 L 222.2 202.6 L 223.9 204.3 L 225.6 205.9 L 227.2 207.6 L 228.8 209 L 230.3 210.1 L 232.3 210.3 Z"/><path d="M 200.8 193.2 L 200.1 193.1 L 199.2 192.9 L 198.2 192.6 L 197 192.3 L 195.8 191.9 L 194.6 191.6 L 193.4 191.3 L 192.3 191.1 L 191.3 191.1 L 190.4 191.3 L 190.4 191.3 L 190.6 192.2 L 191.1 193.1 L 191.8 194 L 192.6 194.9 L 193.4 195.8 L 194.3 196.8 L 195.1 197.6 L 195.8 198.4 L 196.4 199.1 L 196.8 199.7 Z"/><ellipse cx="214" cy="208" rx="12" ry="14.16" fill="#141210"/><circle cx="218.08" cy="200.96" r="4.32" fill="#f7f4ed"/><path d="M 227.7 218 L 226.5 217.5 L 225 217.4 L 223.2 217.5 L 221.3 217.7 L 219.3 217.9 L 217.3 218.2 L 215.3 218.4 L 213.4 218.5 L 211.7 218.6 L 210.3 218.6 L 209.1 218.4 L 207.9 218.2 L 206.5 217.8 L 205.2 217.4 L 203.8 217 L 202.5 216.6 L 201.3 216.2 L 200.1 215.9 L 199.1 215.7 L 198 216.1 L 198 216.1 L 198.4 217.1 L 199.1 217.8 L 200 218.6 L 201 219.5 L 202.2 220.3 L 203.6 221.1 L 205 221.9 L 206.6 222.5 L 208.3 222.9 L 210.1 223.2 L 211.9 223.2 L 213.9 223 L 215.9 222.6 L 218 222.1 L 220.1 221.6 L 222 220.9 L 223.9 220.3 L 225.5 219.6 L 226.8 218.9 L 227.7 218 Z"/>
<path d="M 279.7 210.3 L 281.7 210.1 L 283.2 209 L 284.8 207.6 L 286.4 205.9 L 288.1 204.3 L 289.8 202.6 L 291.4 201.1 L 293 199.8 L 294.2 199 L 295 198.7 L 295.7 198.6 L 296.4 198.5 L 297.3 198.5 L 298.2 198.6 L 299.2 198.7 L 300.3 199 L 301.4 199.2 L 302.6 199.6 L 303.9 199.9 L 305.1 200.3 L 305.6 200.4 L 306.4 200.7 L 307.4 201.2 L 308.5 201.8 L 309.7 202.4 L 310.9 203.1 L 312.1 203.7 L 313.4 204.1 L 314.7 204.4 L 316.6 203.6 L 318.9 200.4 L 319.6 198.6 L 319.4 197.5 L 318.8 196.3 L 318 195.1 L 317 193.8 L 315.8 192.5 L 314.5 191.3 L 312.9 190.1 L 311.2 189 L 309.2 188.1 L 307.8 187.5 L 306.2 187.1 L 304.5 186.6 L 302.6 186.3 L 300.6 186 L 298.6 186 L 296.4 186.1 L 294.1 186.5 L 291.9 187.2 L 289.6 188.3 L 287.4 190 L 285.5 191.8 L 283.7 193.9 L 282.1 196 L 280.6 198.2 L 279.2 200.4 L 278 202.4 L 277.1 204.3 L 276.5 205.9 L 276.8 207.7 Z"/><path d="M 315.2 199.7 L 315.6 199.1 L 316.2 198.4 L 316.9 197.6 L 317.7 196.8 L 318.6 195.8 L 319.4 194.9 L 320.2 194 L 320.9 193.1 L 321.4 192.2 L 321.6 191.3 L 321.6 191.3 L 320.7 191.1 L 319.7 191.1 L 318.6 191.3 L 317.4 191.6 L 316.2 191.9 L 315 192.3 L 313.8 192.6 L 312.8 192.9 L 311.9 193.1 L 311.2 193.2 Z"/><ellipse cx="298" cy="208" rx="12" ry="14.16" fill="#141210"/><circle cx="293.92" cy="200.96" r="4.32" fill="#f7f4ed"/><path d="M 284.3 218 L 285.2 218.9 L 286.5 219.6 L 288.1 220.3 L 290 220.9 L 291.9 221.6 L 294 222.1 L 296.1 222.6 L 298.1 223 L 300.1 223.2 L 301.9 223.2 L 303.7 222.9 L 305.4 222.5 L 307 221.9 L 308.4 221.1 L 309.8 220.3 L 311 219.5 L 312 218.6 L 312.9 217.8 L 313.6 217.1 L 314 216.1 L 314 216.1 L 312.9 215.7 L 311.9 215.9 L 310.7 216.2 L 309.5 216.6 L 308.2 217 L 306.8 217.4 L 305.5 217.8 L 304.1 218.2 L 302.9 218.4 L 301.7 218.6 L 300.3 218.6 L 298.6 218.5 L 296.7 218.4 L 294.7 218.2 L 292.7 217.9 L 290.7 217.7 L 288.8 217.5 L 287 217.4 L 285.5 217.5 L 284.3 218 Z"/>
<path d="M 244.1 171.3 L 242.8 170.8 L 241.1 170.1 L 239.1 169.2 L 236.8 168.2 L 234.3 167.1 L 231.6 165.9 L 229 164.8 L 226.3 163.8 L 223.7 162.8 L 221.3 162 L 219 161.4 L 216.7 160.7 L 214.4 160 L 212 159.4 L 209.7 158.9 L 207.3 158.4 L 205 158 L 202.8 157.8 L 200.6 157.7 L 198.5 157.8 L 196.3 158.1 L 194.3 158.7 L 192.4 159.4 L 190.5 160.3 L 188.8 161.2 L 187.3 162.2 L 185.9 163.2 L 184.7 164.1 L 183.7 164.8 L 183 165.6 L 183 165.6 L 184.1 165.6 L 185.3 165.3 L 186.7 164.8 L 188.3 164.3 L 190 163.7 L 191.7 163.2 L 193.5 162.7 L 195.2 162.4 L 196.9 162.2 L 198.5 162.2 L 200.2 162.4 L 202.1 162.7 L 204 163.2 L 206.1 163.8 L 208.2 164.4 L 210.3 165.1 L 212.5 165.9 L 214.7 166.7 L 216.9 167.5 L 219.1 168.4 L 221.3 169.2 L 223.6 170.3 L 226.1 171.4 L 228.7 172.6 L 231.2 173.8 L 233.6 175 L 235.8 176.1 L 237.8 177.1 L 239.5 178 L 240.9 178.7 Z"/>
<path d="M 271.1 178.7 L 272.5 178 L 274.2 177.1 L 276.2 176.1 L 278.4 175 L 280.8 173.8 L 283.3 172.6 L 285.9 171.4 L 288.4 170.3 L 290.7 169.2 L 292.9 168.4 L 295.1 167.5 L 297.3 166.7 L 299.5 165.9 L 301.7 165.1 L 303.8 164.4 L 305.9 163.8 L 308 163.2 L 309.9 162.7 L 311.8 162.4 L 313.5 162.2 L 315.1 162.2 L 316.8 162.4 L 318.5 162.7 L 320.3 163.2 L 322 163.7 L 323.7 164.3 L 325.3 164.8 L 326.7 165.3 L 327.9 165.6 L 329 165.6 L 329 165.6 L 328.3 164.8 L 327.3 164.1 L 326.1 163.2 L 324.7 162.2 L 323.2 161.2 L 321.5 160.3 L 319.6 159.4 L 317.7 158.7 L 315.7 158.1 L 313.5 157.8 L 311.4 157.7 L 309.2 157.8 L 307 158 L 304.7 158.4 L 302.3 158.9 L 300 159.4 L 297.6 160 L 295.3 160.7 L 293 161.4 L 290.7 162 L 288.3 162.8 L 285.7 163.8 L 283 164.8 L 280.4 165.9 L 277.7 167.1 L 275.2 168.2 L 272.9 169.2 L 270.9 170.1 L 269.2 170.8 L 267.9 171.3 Z"/>
<path d="M 250 222 L 249.2 223.3 L 248.2 225 L 247.1 227.2 L 245.9 229.6 L 244.7 232.2 L 243.6 234.8 L 242.6 237.4 L 241.8 239.8 L 241.2 242.1 L 241.1 244.3 L 241.6 246.3 L 242.6 248 L 244 249.3 L 245.5 250.4 L 247.1 251.3 L 248.6 252 L 250.1 252.6 L 251.3 253.1 L 252.1 253.6 L 252.3 253.7 L 255.7 248.3 L 254.4 247.7 L 253.1 247.4 L 251.8 247.1 L 250.4 246.8 L 249.1 246.5 L 247.8 246 L 246.7 245.5 L 245.8 245 L 245.3 244.4 L 244.9 243.7 L 244.8 242.5 L 245 240.6 L 245.4 238.2 L 246.1 235.7 L 246.9 233 L 247.7 230.3 L 248.6 227.8 L 249.3 225.5 L 249.8 223.5 L 250 222 Z"/>
<path d="M 238 280.2 L 238.6 281.6 L 239.7 282.8 L 241.2 284 L 242.8 285.4 L 244.7 286.7 L 246.8 288 L 249 289.1 L 251.2 290.1 L 253.6 290.7 L 256 291 L 258.4 290.7 L 260.8 290.1 L 263 289.1 L 265.2 288 L 267.3 286.7 L 269.2 285.4 L 270.8 284 L 272.3 282.8 L 273.4 281.6 L 274 280.2 L 274 280.2 L 272.5 279.9 L 270.8 280.3 L 269 280.9 L 267 281.6 L 265 282.4 L 262.9 283.3 L 260.9 284 L 259 284.5 L 257.3 284.9 L 256 285 L 254.7 284.9 L 253 284.5 L 251.1 284 L 249.1 283.3 L 247 282.4 L 245 281.6 L 243 280.9 L 241.2 280.3 L 239.5 279.9 L 238 280.2 Z"/>

</g>
<g fill="#141210"><path d="M 204.9 376.3 L 205.8 380.4 L 207.1 385.8 L 208.8 392.1 L 210.6 399.2 L 212.6 406.8 L 214.8 414.6 L 217 422.4 L 219.2 429.9 L 221.2 436.8 L 223.1 442.9 L 225 448.6 L 227 454.2 L 229 459.6 L 231 464.9 L 232.9 469.9 L 234.8 474.6 L 236.6 478.9 L 238.3 482.6 L 239.7 485.8 L 240.9 488.4 L 243.1 487.6 L 242.4 484.9 L 241.5 481.5 L 240.4 477.5 L 239 473.1 L 237.6 468.3 L 236 463.2 L 234.2 457.8 L 232.5 452.3 L 230.7 446.7 L 228.9 441.1 L 226.9 435 L 224.7 428.2 L 222.3 420.8 L 219.9 413.1 L 217.4 405.4 L 214.9 398 L 212.6 391 L 210.4 384.8 L 208.6 379.6 L 207.1 375.7 Z"/>
    <path d="M 304.9 375.7 L 303.4 379.6 L 301.6 384.8 L 299.4 391 L 297.1 398 L 294.6 405.4 L 292.1 413.1 L 289.7 420.8 L 287.3 428.2 L 285.1 435 L 283.1 441.1 L 281.3 446.7 L 279.5 452.3 L 277.8 457.8 L 276 463.2 L 274.4 468.3 L 273 473.1 L 271.6 477.5 L 270.5 481.5 L 269.6 484.9 L 268.9 487.6 L 271.1 488.4 L 272.3 485.8 L 273.7 482.6 L 275.4 478.9 L 277.2 474.6 L 279.1 469.9 L 281 464.9 L 283 459.6 L 285 454.2 L 287 448.6 L 288.9 442.9 L 290.8 436.8 L 292.8 429.9 L 295 422.4 L 297.2 414.6 L 299.4 406.8 L 301.4 399.2 L 303.2 392.1 L 304.9 385.8 L 306.2 380.4 L 307.1 376.3 Z"/><g transform="rotate(-10 372 456)">
    <path d="M 338 410 C 339.1 408.5, 404.9 408.5, 406 410 C 407.1 411.5, 407.1 500.5, 406 502 C 404.9 503.5, 339.1 503.5, 338 502 C 336.9 500.5, 336.9 411.5, 338 410 Z" fill="#f7f4ed"/>
    <path d="M 338 413 L 340.2 413 L 345.5 412.9 L 353 412.7 L 362.1 412.6 L 372 412.4 L 381.9 412.3 L 391 412.3 L 398.5 412.4 L 403.6 412.6 L 403.6 411.8 L 403.3 413.1 L 403.5 420.1 L 403.7 430.3 L 403.8 442.6 L 403.9 456 L 403.8 469.4 L 403.7 481.7 L 403.5 491.9 L 403.3 498.9 L 403.6 500.2 L 403.6 499.4 L 398.5 499.7 L 391 500 L 381.9 500.1 L 372 500.2 L 362.1 500.1 L 353 500 L 345.5 499.7 L 340.4 499.4 L 340.4 500.2 L 340.7 499 L 340.6 492 L 340.5 481.7 L 340.5 469.4 L 340.6 456 L 340.7 442.6 L 340.8 430.3 L 340.9 420 L 341 412.9 L 341 410 L 335 410 L 335 412.9 L 334.9 420 L 334.8 430.2 L 334.7 442.6 L 334.6 456 L 334.5 469.4 L 334.5 481.7 L 334.6 492 L 334.7 499.2 L 335.6 503.8 L 339.9 505.4 L 345.3 505.7 L 352.9 506 L 362.1 506.1 L 372 506.2 L 381.9 506.1 L 391.1 506 L 398.7 505.7 L 404.1 505.4 L 408.4 503.8 L 409.3 499.3 L 409.5 492.1 L 409.7 481.8 L 409.8 469.4 L 409.9 456 L 409.8 442.6 L 409.7 430.2 L 409.5 419.9 L 409.3 412.7 L 408.4 408.2 L 404.1 406.6 L 398.7 406.4 L 391 406.3 L 381.9 406.3 L 372 406.4 L 362.1 406.6 L 352.9 406.7 L 345.3 406.9 L 340.1 407 L 338 407 Z"/>
    <path d="M 350 430 L 352.8 431 L 356.7 431.4 L 361.4 431.8 L 366.5 431.9 L 372 432 L 377.5 431.9 L 382.6 431.8 L 387.3 431.4 L 391.2 431 L 394 430 L 394 430 L 391.2 429 L 387.3 428.6 L 382.6 428.2 L 377.5 428.1 L 372 428 L 366.5 428.1 L 361.4 428.2 L 356.7 428.6 L 352.8 429 L 350 430 Z"/><path d="M 350 450 L 352.8 451 L 356.7 451.4 L 361.4 451.8 L 366.5 451.9 L 372 452 L 377.5 451.9 L 382.6 451.8 L 387.3 451.4 L 391.2 451 L 394 450 L 394 450 L 391.2 449 L 387.3 448.6 L 382.6 448.2 L 377.5 448.1 L 372 448 L 366.5 448.1 L 361.4 448.2 L 356.7 448.6 L 352.8 449 L 350 450 Z"/><path d="M 350 470 L 351.9 471 L 354.6 471.4 L 357.7 471.8 L 361.3 471.9 L 365 472 L 368.7 471.9 L 372.3 471.8 L 375.4 471.4 L 378.1 471 L 380 470 L 380 470 L 378.1 469 L 375.4 468.6 L 372.3 468.2 L 368.7 468.1 L 365 468 L 361.3 468.1 L 357.7 468.2 L 354.6 468.6 L 351.9 469 L 350 470 Z"/>
  </g></g>
</g></svg>